<?xml version="1.0" encoding="UTF-8"?>
<!DOCTYPE svg PUBLIC "-//W3C//DTD SVG 1.1//EN" "http://www.w3.org/Graphics/SVG/1.1/DTD/svg11.dtd">
<!-- Creator: CorelDRAW 2021 (64-Bit Evaluation Version) -->
<svg xmlns="http://www.w3.org/2000/svg" xml:space="preserve" width="60.0332mm" height="68.069mm" version="1.1" style="shape-rendering:geometricPrecision; text-rendering:geometricPrecision; image-rendering:optimizeQuality; fill-rule:evenodd; clip-rule:evenodd"
viewBox="0 0 6003.32 6806.9"
 xmlns:xlink="http://www.w3.org/1999/xlink"
 xmlns:xodm="http://www.corel.com/coreldraw/odm/2003">
 <defs>
  <style type="text/css">
   <![CDATA[
    .str1 {stroke:#FEFEFE;stroke-width:7.62;stroke-miterlimit:22.9256}
    .str0 {stroke:#F5B2B6;stroke-width:7.62;stroke-miterlimit:22.9256}
    .fil0 {fill:none}
    .fil18 {fill:none;fill-rule:nonzero}
    .fil9 {fill:#2B2A29}
    .fil12 {fill:#2B2A29}
    .fil3 {fill:#FFED00}
    .fil7 {fill:#FCE9EE}
    .fil5 {fill:#F5B2B6}
    .fil2 {fill:#E54023}
    .fil11 {fill:#E31E24}
    .fil15 {fill:#FCFDF5}
    .fil6 {fill:#F5F4C5}
    .fil13 {fill:#A5ACAB}
    .fil14 {fill:#8C8C8C}
    .fil4 {fill:#221E22}
    .fil1 {fill:#00A0E3}
    .fil8 {fill:#009846}
    .fil16 {fill:#009846}
    .fil10 {fill:#008DD2}
    .fil17 {fill:#FEFEFE;fill-rule:nonzero}
   ]]>
  </style>
 </defs>
 <g id="Layer_x0020_1">
  <metadata id="CorelCorpID_0Corel-Layer"/>
  <rect class="fil0" y="-0" width="6003.32" height="6806.91"/>
  <path class="fil1" d="M826.91 1554.54c7.64,32.61 6.62,56.41 2.47,84.01 -11.22,74.46 -0.42,343.41 -4.1,445.53l7.15 364.87c9.83,82.47 -1.85,112.36 7.71,187.82 19.06,150.48 16.59,260.59 44.94,434.8 34.81,213.88 54.27,352.72 117.8,561.26l122.29 255.27c70.83,113.14 146.76,163.01 287.1,139.15 70.79,-12.04 101.37,-17.49 158.73,-41.47 167.23,-69.89 188.31,-142.51 110.69,-359.54 -20.03,-55.95 -24.72,-105.18 -40.76,-163.2 -21.27,-76.93 -17.41,-20.9 -41.24,-152.14 -9.68,-53.31 -27.42,-110.53 -39.72,-158.85 -74.33,-291.84 -64.08,-422.33 -102.53,-685.71 -14.57,-99.79 -45.63,-259.41 -45.9,-348.64 -0.32,-106.08 7.9,-30.03 -8.09,-163.66 -6.59,-55.12 -4.8,-106.81 -7.98,-161.99 -2.87,-49.91 -18.61,-115.95 -16.96,-168.26 5.83,-183.69 -52.3,-152.91 90.08,-180.33 77.51,-14.94 53.98,-19.33 90.76,-29.65 74.97,-21.04 127.99,-17.19 199.11,-50.59 46.92,-22.03 103.1,-57.79 123.58,-100.74 22.59,-47.36 19.47,-118.57 -13.21,-170.81 -74.26,-118.72 -226.2,-101.33 -302.88,-109.27 -203.94,-21.12 -1074.44,145.66 -1220.4,222.8 -77.3,40.85 -169.49,46.67 -143.02,209.47 9.21,56.65 10.43,56.22 36.91,88 91.53,109.84 327.95,58.45 474.03,58.3 33.03,-0.03 77.76,-8.72 113.44,-6.43z"/>
  <path class="fil2" d="M4183.63 1304.35c30.83,5.46 64.61,12.05 72.22,14.52 51.05,16.63 55.69,30.93 54.48,94.81 -1.91,100.2 -10.83,125.44 -21.77,204.09 -3.37,24.21 -1.16,52.01 -3.31,76.63 -3.84,43.89 -18.29,69.61 -20.58,124.23l-19.17 280.16c-13.47,158.52 -11.08,488.46 3.03,645.75 16,178.47 16.89,281.32 39.91,466.27 4.68,37.59 15.95,61.61 19.91,103.06 4.27,44.65 12.03,72.02 18.62,104.71 7.61,37.76 0.08,81.32 12.27,114.95 7.64,21.06 10.71,15.26 15,46.12l20.49 81.41c60.11,132.08 23.52,162.77 158.91,323.88 70.41,83.76 98.78,131.75 249.52,90.26 23.46,-6.45 22.43,-8.68 39.56,-21.23 14.3,-10.47 30.81,-19.46 41.03,-28.82 14.93,-13.67 37.87,-58.5 43.54,-79.79 38.23,-143.57 -23.86,-424.25 -25.78,-584.27 -1.01,-83.54 0.89,-166.97 -12.2,-243.52 -28.85,-168.65 -13.3,-591.84 -9.98,-800.15 6.4,-402.65 29.35,-214.2 521.82,-345.1 71.45,-19 137.31,-61.33 151.18,-139.56 14.52,-81.88 -19.4,-131.21 -80.87,-167.46 -95.47,-56.32 -538.22,85.47 -567.14,14.73 -10.17,-24.85 -2.73,-204.89 17.97,-233.51 43.78,-60.54 76.6,-38.64 150.26,-56.82 82.97,-20.49 286.79,-21.91 381.83,-38.94 35.66,-6.39 41.02,-16.06 80.82,-17.35 91.76,-2.97 177.14,-18.04 257.29,-59.12 50.16,-25.71 72.16,-72.42 67.41,-149.04 -2.36,-37.94 -11.58,-50.77 -20.52,-82.23 -38.26,-134.48 -270.15,-88.82 -428.3,-82.17 -68.32,2.88 -129.22,8.74 -194.12,16.03 -65.1,7.32 -132.44,7 -202.55,12.36 -34.66,2.64 -43.27,10.69 -85.94,12.25 -37.59,1.36 -60.64,5 -93.56,6.74 -68.06,3.63 -135.55,5.25 -202.52,6.68 -119.77,2.55 -262.44,28.7 -382.52,21.46l-46.24 267.98z"/>
  <path class="fil3" d="M2684.4 984.03c0.78,-170.48 37.95,-420.69 -54.55,-493.84 -34.37,-27.17 -30.62,-24.69 -87.94,-24.39 -94.43,0.45 -181.54,10.32 -241.88,90.25 -52.88,70.03 -73.47,147.28 -105.14,222.52 -71.57,170.1 -73,367.28 -98.65,549.23 -9.34,66.36 -8.15,137.47 -9.06,209.23 -1.09,84.6 13.37,135.62 -39.47,175.51 -40.59,30.63 -107.62,39.42 -153.13,64.73l-73.34 91.68c-32.41,68.51 -8.93,170.57 69.28,194.35 143.56,43.62 148.18,-66.85 189.73,246.09l26.74 185.59c41.7,227.26 135.35,535.49 244.55,734.79 25.69,46.87 42.88,100.31 79.03,139.79 13.89,15.18 16.02,15.07 30,25.58l66.16 40.97c14.79,12.96 -3.13,0.53 13.35,11.28 27.59,17.99 71.86,33.98 102.77,36.62 91.25,7.76 106.85,-8.15 163.76,-45.78 65.04,-43.01 53.03,-155.26 29.82,-230.69l-9.39 -21.9c-13.37,-33.69 -2.52,-62.36 -12.56,-97.52 -12.34,-43.19 -17.28,-19.24 -18.49,-86.48 -1.55,-86.96 -37.93,-232.11 -40.78,-288.26 -3.6,-70.83 -4.43,-143.6 -8.29,-210.88 -5.53,-96.3 -29.91,-417.42 -3.6,-506.7 17.7,-60.04 137.49,-79.12 195.55,-82.7 110.46,-6.82 227.81,-39.54 343.48,-33.6 120.46,6.2 73.15,173.69 64.61,283.67 -9.24,119.1 -9.09,235.94 -18.8,354.44 -8.92,108.7 -1.51,246.86 -13.11,353.3 -15.99,146.65 9.67,352.81 139.18,416.94 38.9,19.24 128.36,28.38 177.75,0.89l44.06 -25.93c33.33,-26.28 64.09,-62.18 86.87,-98.76l15.34 -31.36c39.86,-134.32 45.49,-206.84 47.01,-365.07 0.9,-94.37 35.96,-420.24 58.12,-503.63 13.19,-49.65 11.25,-117.07 21.59,-166.73 6.06,-29.14 9.11,-47.22 13.48,-78.03 4.87,-34.18 10.24,-39.32 15.87,-76.38 4.26,-28.06 4.91,-53.44 7.81,-86.75 4.44,-50.61 24.87,-95.94 35.42,-142.92 6.48,-28.83 6.34,-52.7 14.49,-80 19.57,-65.55 36.42,-212.37 44.67,-238.94 33.43,-107.57 77.13,-323.21 93.85,-373.29l28.22 -111.41c4.3,-11.76 8.02,-22.9 12.96,-33.37l45.7 -140.6c12.04,-49.1 34.23,-83.3 45.56,-142 2.25,-0.06 9.63,0.91 19.79,2.48l70.45 -262.89c-5.33,-55.11 -10.02,-113.4 -69.51,-139.99 -117.87,-52.68 -296.5,-42.09 -416.58,-2.47 -69.31,22.87 -80.67,38.02 -116.92,93.45 -48.53,74.21 -120.65,185.15 -131.77,278.69l-42.23 158.95c-6.2,27.62 -1.36,65.34 -8.35,96.72 -11.53,51.74 -34.29,106.74 -40.47,166.08 -5,48 -16.65,55.12 -21.57,87.08 -17.58,114.09 -29.21,235.72 -68.22,347.36 -22.72,65 -97.72,54.45 -156.13,58.89 -44.21,3.35 -33.68,11.57 -81.14,18.47 -33.07,4.78 -58.16,9.29 -84.63,14.32 -59.18,11.27 -320.37,49.92 -367.03,35.41 -19.56,-6.09 -39.86,-30 -43.88,-50.6 -4.1,-21.05 -1.32,-80.95 -2,-106.48 -2.1,-79.26 -16.65,-114.14 -17.03,-194.69 -0.32,-70.03 -1.69,-140.32 -1.38,-210.32z"/>
  <path class="fil4" d="M2768.4 4347.38c25.98,-12.41 68.46,-22.27 97.38,-29.37 55.2,-13.57 37.04,-16.65 81.57,-36.38l29.24 57.61 81.77 2.18c5.98,36.45 -34.14,130.76 -41.49,161.27 -18.52,77 -53.55,218.19 -49.86,286.03 25.27,9.39 37.07,17.43 58.44,32.4 -20.65,115.54 -49.54,244.8 -32.75,377.79 32.76,36.65 15.27,29.01 69.75,49.59 2.38,65.77 -35.29,124.95 -46.95,181.94 -15.96,77.9 -21.21,112.7 -30.21,194.23 -45.95,15.7 -63.14,10.26 -103.18,38.55 -33.72,23.83 -47.74,52.28 -70.61,75.85 6.22,-29.96 14.62,-28.83 -0.68,-50.31l-120.78 -85.87c-0.92,-112.43 10.22,-490.45 37.8,-581.99 16.84,-55.88 35.06,-121.91 -4.55,-161.72 97.39,-39.39 93.82,-34.35 136.5,-79.6 14.63,-15.52 6.44,-6.44 17.37,-14.47 4.51,-3.31 11.09,0.13 13.82,-8.5 1.11,-3.5 4.86,-2.7 7.17,-4.23 5.59,-80.3 -118.5,-295.16 -129.75,-405zm-729.98 1354.6l43.69 -18.41 16.87 -3.89c16.39,-24.8 140.42,-15.95 168.38,-8.63 12.19,55.02 -0.1,34.68 -9.41,43.09 -9.26,14.92 -24.75,0.35 -56.99,-2.22 -30.04,-2.41 -63.29,2.88 -93.95,4.55l-73.69 14.58c-39.99,-4.43 -20.81,-4.84 -32.53,-12.92 19.45,-25.1 0.42,-13.93 37.63,-16.15zm508.35 -52.71l68.16 -12.12c50.08,62.21 108.29,46.63 150.64,92.51l-192.05 -0.27 -26.75 -80.12zm979.54 -359.36l86 -0.15c-2.97,76.38 -5.02,224.44 19.37,286.06 14.77,37.35 35.99,61.4 72.25,81.75 58.16,32.65 65.27,-2.82 108.03,50.57 -115.75,2.38 -103.09,31.5 -137.69,26.99 -2.89,-1.22 -6.99,-6.51 -8.46,-4.13 -17.28,28.09 3.13,-5.04 -38.5,-18.67 -18.8,-6.14 -28.25,-4.18 -47.65,-11.56 -14.06,-54.88 5.36,-46.49 -0.8,-94.06 -5.75,-44.44 -25.69,-64.15 -34.66,-90.31 -23.71,-69.17 -7.05,-150.21 -17.89,-226.49zm-398.32 412.22l-193.86 7.79c23.02,-24.55 14.25,10.63 117.98,-49.47 13.25,-205.29 74.71,-315.08 76.24,-394.31l70.73 -1.66 2.33 48.55c-1.86,21.48 -4.88,41.27 -6.58,62.39 -4.76,58.69 3.93,69.59 -17.68,115.7 -35.9,76.53 -28.04,150.04 -49.16,211.01zm-666.01 -771.39l217.78 -52.23 -48.32 352.29c-24.53,338.78 31.23,279.54 26.72,374.51l-123.42 -3.33c-21.44,-144.57 -15.2,-600.96 -72.76,-671.24zm593.67 -79.92c74.9,2.13 150.2,90.86 525.2,79.38 90.59,-2.79 95.69,-24.25 172.03,-30.21 6.66,115.61 -14,269 -17.98,285.3 -10.28,41.88 -161.42,49.41 -208.58,52.17 -29.66,1.74 -43.42,-11 -62.22,-28.17l-1.98 -155.78c-25.64,-22.18 -14.61,-29.17 -45.92,-34.96l-55.16 -10.32 -19.98 44.88c-17.95,47.84 -17.41,26.82 -28.05,98.64 -0.14,1.07 -0.98,28.21 -4.15,34.48 -50.79,33.08 -209.32,18.74 -250.78,-14.34 -30.55,-53.78 47.36,-211.23 4.14,-304.43l-5.04 -11.16c-0.4,-0.9 -0.79,-3.74 -1.53,-5.48zm-122.51 -697.33c6.01,71.34 14.18,85.48 -49.22,94.85 -60.25,8.9 -96.12,10.03 -158.49,7.91l-3.5 -91.52 211.21 -11.24zm396.85 -109.11c56.38,-26.42 14.29,-46.32 84.67,-62.8 58.13,50.02 -10.42,42.2 68.52,66.2l14.56 -53.37c32.7,-0.99 103.6,19.17 119,36.91 29.8,34.39 2.85,55.52 78.86,67.49 52.73,8.31 87.29,-17.4 136.93,-2.47l105.57 40.23c-2.59,76.84 8.69,135.43 -35.36,174.69 -101.52,-27.29 -14.69,-56.47 -83.09,-73.95 -14.82,22.67 -29.74,93.18 -29.71,120.46 0.03,15.39 15.5,36.59 15.94,83.07 1,171.58 2.23,86.68 23.68,187.88 7.43,35.09 -1.63,57.93 11.73,93.73 6.01,16.13 35.41,67.76 -13.97,88.22 -141,58.4 -249.42,54.67 -413,50.67l-389.79 -92.14c-7.55,-51.99 46.85,-222.68 67.71,-277.77 16.19,-42.73 32.48,-94.23 40.97,-133.76 14.05,-65.46 37.5,-51.49 12.1,-135.91l-45.39 -0.15 -17.56 52.96c-89.56,4.43 -48.01,-6.85 -107.79,-124.5l117.6 -41.44c26.7,-7.45 72.82,-24.32 107.66,-37.4 39.86,-14.95 99.08,-12.3 130.16,-26.85zm716.42 291.36l-66.81 -1.35c-6.19,-34.94 -9.85,-0.23 0.34,-34.88 3.52,-11.96 10.47,-15.69 14.83,-21.98l8.97 -68.02c45.83,-9.72 21.81,18.09 84.91,28.47 27.57,4.53 68.49,13.6 89.39,10.54 135.11,-19.68 240.89,-101.92 346.15,-194.13 30.13,-26.39 48.98,-68.62 75.44,-97.46 66.06,-2.67 95.18,-29.2 147.51,0.08l-9.2 44.47c38.96,14.55 17.27,-3.02 34.69,22.85 -53.54,53.54 -17.8,7.66 -44.83,73.54l-155.02 13.58c-0.23,-0.01 -15.39,-3.06 -25.68,-1.76 -90.86,11.45 -94.67,73.3 -150.8,128.78 -157.72,155.87 -247.32,93 -349.89,97.27zm-2046.68 -351.81c45.57,-37.85 50.56,-21.85 75.31,-83.75 88.75,2.15 131.41,20.62 207.77,28.7 70.33,7.46 139.85,46.56 210.38,15.59l7.64 26.48c15.88,-4.4 213.26,9.6 240.8,20.09 18.8,15.74 13.36,74.34 11.25,107.31 -62.73,-1.55 -60.02,-7.97 -97.57,30.96 -34.01,70.86 106.8,440.52 159.3,536.63 42.03,76.98 66.47,89.54 -41.99,131.03l-209.94 41.09c-49.89,5.75 -43.1,20.81 -93.12,23.23 -72.73,3.53 -192.89,13.2 -259.5,8.77 -86.9,-5.78 -149.21,-11.95 -212.34,-1.52 -5.96,0.99 -4.33,2.8 -20.64,2.65 -6.27,-59.14 46.22,-274.64 52.83,-367.97 0.95,-13.55 28.98,-177.82 33.04,-190.6 34.1,-107.16 10.39,-85.74 -13.77,-164.45l-59.98 -4.02 10.53 -160.22zm901 48.92c32.95,-37.65 59.88,-18.32 119.31,-37.96 88.13,-29.13 242.86,-39.43 276.71,-56.91 43.48,-22.44 74.28,-13.66 124.1,-1.68 -12.14,8.64 -27.25,14.17 -40.95,23.38l-37.93 35.24c-86.17,-11.25 -153.07,3.57 -222.35,27.95l-168.1 66.03c-38.14,-27.68 -39.4,-23.84 -50.79,-56.05zm1630.09 -303.31c25.54,-26.44 60.43,-62.91 84.02,-92.56 28.33,-35.6 51.33,-67.66 87.04,-99.03 5.27,55.31 9.96,129.52 -26.1,159.7 -26.15,21.88 -97.77,41.99 -144.96,31.89zm-3292.58 -47.91l16.46 43.66 49.6 -2.71c9.89,-44.63 -1.58,-74.63 12.69,-100.65 40.97,74.35 12.18,100.16 80.5,167.21 66.09,64.86 204.88,162.8 303.92,193.89 87.92,27.59 122.66,39.45 233.02,16.19 -7.96,56.54 8.23,47.44 -119.05,45.8 -61.82,-0.79 -144.29,-15.69 -192.7,-35.04 -173.63,-69.41 -242.13,-182.8 -321.32,-198.94 -189.13,-38.55 -156.16,-106.91 -106.16,-103.59l18.79 -13.8c-10.98,-60.33 -19.13,-24.48 -30.64,-71.12 63.55,-3.69 49.89,0.69 54.89,59.1zm3531.03 -192.57c28.6,4.89 52.93,31.48 68.03,48.33 -14.78,28.34 -12.68,17.83 -32.28,40.57 -22.14,25.67 2.85,21.98 -34.72,26.63l-1.03 -115.53zm-142.56 22.88l-58.96 -64.81 107.08 -5.99c-4.39,34.94 -10.4,47.18 -48.12,70.8zm428.7 98.26c-48.9,-14.49 -151.15,-125.16 -212.87,-159.97 75.44,-8.62 169.7,-5.72 201.46,57.92 15.38,30.85 23.1,73.91 11.41,102.05zm-280.92 -207.4c20.44,-17.89 27.35,-11.01 46.03,-37.82 20.5,-29.4 8.26,-22.69 37.59,-46.18 27.31,13.57 36.64,29.83 66.89,47.66 -13.11,10.32 -4.54,5.96 -25.06,15.27 -36.6,16.58 -89.08,29.92 -125.45,21.07zm-751.36 180.78c41.08,8.72 53.77,4.06 86.22,26.51 11.23,98.85 -26.76,171.25 -133.93,177.91 -1.19,-2.33 -2.14,-5.74 -2.77,-7.34l-18 -38.36c-101.27,86.51 -189.92,147.69 -332.3,148.99 -44.9,0.42 -111.39,5.89 -151.7,-5.83 -300.08,-87.15 -283.95,-245.24 -370.14,-265.92l-18.15 39.16c-57.68,-17.68 -55.23,-93.86 -49.46,-141.52 61.16,-39.91 103.29,-3.22 118.5,-73.25 -35.84,-27.36 -28.57,7.73 -69.28,-103.19 -23.08,-62.91 13.87,-73.45 22.85,-121.9 51.1,-2.25 105.32,-13.12 160.69,-19.04l285.45 53.91c42.51,2.17 19.46,-24.13 75.88,-2.91 89.94,33.82 49.93,13.27 119.98,-13.44 35.7,52.47 63.9,95.15 114.66,133.48 53.54,40.45 38.92,91.12 157.98,93.12 7.75,23.98 19.53,36.55 18.58,62.61 -0.72,20.12 -12.3,33.46 -15.06,57.01zm-2802.11 -367.43c8.16,75.51 30.43,99.03 2.64,166.11 -15.75,38.01 -101.91,66.24 -139.45,71.82l136.81 -237.93zm3475.05 25.99c11.88,52.96 8.23,60.03 25.56,107.26 -32.13,-8.84 -47.42,-24.77 -62.67,-62.88l37.11 -44.38zm-165.56 26.64l34.69 32.3c8.51,8.36 13.8,13.6 25.81,25.77l52.49 56.16c-53.56,2.3 -95.36,8.66 -133.6,-15.87l-44.59 -43.02c-12.38,-70.55 -29.21,-106.97 -13.41,-130.46l78.61 75.12zm-3234.27 -1.9c-5.28,-15.49 -7.19,-37.25 -13.89,-58.53 -8.41,-26.65 -8.9,-11.69 -19.33,-46.5 40.25,5.43 58.99,18.64 84.61,43.24 -13.77,61.77 -35.93,57.39 -51.39,61.79zm-233.76 -98.33c61.17,-13.23 54.84,-30.62 112.15,-24.46l-37.77 81.34 -74.38 -56.88zm1687.16 489c7.38,-21.83 4.36,-16.88 10.66,-40.77l-20.24 14.39c-18.88,12.66 4.73,0.15 -21.78,12.99 -103.77,132.38 -189.45,207.72 -415.13,204.83 -133.6,-1.72 -252.49,-48.93 -343.04,-124.04l-82.35 -63.28 -9.94 22.23c-0.83,2.18 -1.54,5.84 -2.29,7.86 -6.53,17.71 -1.73,9.93 -8.55,20.15 -54.09,-21.28 -61.22,-72.7 -56.78,-139.14 19.54,-8.52 74.37,-28.11 94.52,-39.21 1.07,-53.9 -7.06,-35.62 -42.47,-58.6l-20.63 -117.83c93.73,-24.48 199.02,-39.45 292.84,-70.05 25.55,-8.34 109.29,-41.81 129.22,-58.78 13.96,-11.88 26.23,-38.58 27.16,-65.08 0.74,-20.58 -3.14,-24.33 -3.57,-36.11 -0.07,-2.06 -0.43,-5.44 -0.4,-7.15l5.88 -16.71c37.66,62.92 -2.36,84.18 72.69,132.51 71.42,6.04 55.61,-13.2 113.96,-20.09 122.1,-14.39 52.51,-11.43 104.26,-22.5 63.14,-13.53 176.09,0.86 234.77,16.15 -2.87,75.4 14.24,106.05 14.31,161.91 -36.87,29.17 -47.99,27.18 -56.42,87.63l86.03 -11.02c89.43,129.53 -31.21,229.97 -102.71,209.71zm-1414.82 -545.09c66.19,-4.57 125.46,-45.73 183.05,-4.33 53.04,38.14 45.25,97.09 78.25,138.35l-261.3 -134.02zm1757.08 60.62c-3.42,-20.15 65.26,-126.58 84.85,-154 93.81,-131.38 125.61,-92.03 196.39,-124.92 68.49,-31.83 111.84,3.86 170.56,-18.18 39.87,-14.98 89.47,-52.18 202.56,-3.13 159.88,69.34 170.92,73.3 281.36,227.59 7.84,10.97 27.12,36.23 30.72,43.77 48.03,100.45 23.44,173.93 31.82,279.56 4.18,52.81 24.97,35.75 24.63,103.34l-34.43 -22.6c-53.22,-42.02 -20.31,-25.85 -47.5,-55.29 -22.63,-24.51 -75.7,-27.87 -107.36,-46.81l-4.72 -71.12 -44.64 -14.1c-1.05,-77.33 19.36,-78.96 17.22,-134.8 -49.9,7.04 -52.77,22.76 -62.84,54.38 -7.18,-8.77 -2.06,0.92 -13.8,-18.85l-19.1 -42.76c-62.08,-117.89 -104.88,124.27 -160.13,-23.36 -111.75,5.31 -24,62.75 -139.75,1.11 -45.41,17.62 -3.83,19.81 -63.75,18.82 -26.02,-28.21 -11.28,-34.61 -40.1,-60.58 -23.95,12.58 -33.18,36.6 -47.34,54.11l-160.35 -0.5c-92.02,-0.3 -34.51,4.61 -69.59,13.09l-24.71 -4.77zm1678.95 -15.52c27.72,-29.48 102.79,-64.06 158.23,-67.21 -24.67,34.53 -54.09,70.34 -84.32,112.04 -14.31,19.77 -56.01,98.92 -76.1,112.19l2.19 -157.02zm-2940.33 146.89c12.67,-30.49 11.73,-36.8 19.87,-77.33 40.22,-200.18 360.02,-485.97 718.47,-287.37 38.48,21.3 77.09,66.85 108.21,99.51 38.7,40.64 71.55,53.58 89.72,119.74 -75.56,0.08 -134.97,-10.01 -203.66,-11.61 -67.13,-1.55 -148.32,17.59 -187.84,15.19l-44.54 -116.09c-45.23,-6.81 -68.3,-1.47 -120.5,2.43 6.95,44.1 9.77,67.91 7.23,124.42 -89.53,52.2 -250.53,78.04 -260.15,81.75 -19.67,7.6 -39.21,47.26 -126.81,49.36zm-549.6 -220.04c10.93,-51.93 23.33,-40.12 35.03,-98.31 32.23,5.45 54.34,21.21 75.6,42.44 -9.78,10.16 -5.5,9.09 -25.67,17.27l-84.96 38.6zm-144.2 -130.56c37.32,11.79 17.61,-13.28 59.07,91.23 -37.45,-21.28 -47.13,-20.24 -69.48,-48.12l10.41 -43.11zm-235.01 -17.42c19.84,5.79 205.93,128.84 223.96,158.71l-159.15 -1.01c-33,-43.47 -57.8,-77.67 -64.81,-157.7zm309.93 -110.38c25.94,-21.44 84.8,-71.39 133.82,-69.09 -9.98,41.69 -54.5,116.33 -71.28,157.84 -5.08,12.56 -4.59,15.57 -10.88,29.88 -6.4,14.54 -18.03,36.57 -25.87,50.6 -15.22,-92.75 -32,-29.61 -25.79,-169.23zm1175.78 2136.59c-16.08,-12.89 -6.86,-9.77 -30.72,-11.76l-12.61 39.29c6.04,19.54 11.4,17.53 -7.79,13.07 3.07,20.16 8.06,15.92 -11.09,15.92 -6.73,113.15 -23.51,169.68 -31.91,284 -5.95,80.91 -27.12,80.34 -25.88,228.34 0.73,87.46 11.3,75.12 -110.41,71.49 -4.06,-135.02 -23.38,-248.43 -23.5,-320.96 -0.17,-106.54 18.72,-258.8 -24.01,-340.77l207.36 -3.39 114.83 -11.59c-0.2,63.72 4.65,182.55 0.17,238.73 -2.93,144.92 13.7,93.05 16.14,168.11 2.17,66.12 -0.82,110.9 14.27,174.05 48.32,202.21 -48.57,339.04 246.33,273.39 103.39,-23.01 419.98,17.41 461.94,-46.92 21.76,-109.42 32.97,-136.53 70.7,-229.95 32.27,-79.89 40.61,-155.33 15.65,-240.53l27.02 -3.28c19.67,-31.97 1.41,-10.8 48.29,-40.34 1.8,-1.14 4.25,-2.89 6.02,-4.04 56.23,-36.54 18.63,-26.01 54.42,-68.06 3.27,20.38 7.04,54.37 13.02,85.47 7.07,9.55 8.71,16.08 23.31,23.74l42.46 14.95c-15.94,111.48 -43.37,110.53 0,233.84 13.46,38.27 39.79,76.53 47.04,100.36 20.32,66.72 -14.35,99.46 36.14,128.11 95.07,53.94 149.18,37.64 265.07,38 12.17,0.04 42.05,0.44 52.75,-0.7 87.57,-9.39 16.2,-85.58 -19.12,-117.81 -39.22,-35.78 -95.55,-37.42 -128.69,-59.06 -33.09,-21.6 -39.2,-93.51 -40.07,-145.73 -1.37,-83.82 -6.97,-84.51 -18.85,-156.62 89.73,-30.67 138.85,-28.79 148.86,-144.55 9.59,-111.13 9.08,-178.72 -3.18,-279.83 13.58,-11.23 23.31,-22.67 42.72,-29 109.02,-35.54 56.74,8.82 47.3,-116.84 -3.28,-43.67 -3.02,-81.53 -12.9,-121.71 -16.75,-68.03 -18.82,-164.25 -15.66,-244.25 36.24,9.47 77.62,22.12 117.92,29.75l117.5 28.37c93.67,20.12 179.56,-0.4 243.02,-33.02 269.81,-138.64 83.17,-239.95 340.67,-217.89 23.27,-31.29 25.17,-22.1 42.88,-32.5 26.01,-15.27 11.85,-4.78 30.22,-32.74 52.08,-79.24 71.74,-57.6 42.18,-124.6 -27.98,-63.42 1.29,-42.47 -64.11,-93.1 1.35,-37.73 0.54,-77.91 2.18,-114.77 2.9,-65.11 54.1,-84.64 150.45,-185.88 98.29,44.49 55.35,60.7 169.29,94.86 36.45,10.93 18.56,21.27 54.77,32.67 34.71,-218.13 -67.42,-314.85 -225.35,-442.48 5.26,-21.36 44.37,-82.3 60.04,-108.35 38.96,-64.78 67.57,-150.03 -38.99,-121.54 -27.99,7.48 -33.28,7.7 -59.82,11.19 -101.14,13.24 -141.84,81.22 -214.11,160.7 -16.02,17.62 -17.96,24.6 -32.7,41.45 -49.38,-15.84 -80.13,-86.84 -197.31,-133.48 -21.06,31.74 -39.41,193.85 18.74,269.23 42.75,55.43 96.06,137.21 146.46,171.35 -6.47,33.15 -160.21,218.23 -107.65,235.28 39.59,12.85 69.91,6.22 123.65,-4.94 35.02,-16.03 53.22,-12.59 91.39,-10.63 0.04,35.55 0.34,70.91 -12.98,95.05 -9.86,-17.28 -12.67,-39.28 -18.19,-56.08 -28.47,-2.59 -41.02,-9.09 -75.05,2.18 -33.42,52.78 -27.46,11.58 -28.59,101.06 -44.43,29.99 -63.39,71.42 -102.09,102.52 -22.59,18.15 -38.23,26.7 -58.3,45.69 -196.17,185.58 -243.31,109.61 -365.58,108.34 3.4,-69.2 3.8,-58.05 -28.42,-94.4 -26.13,2.38 -26.25,5.86 -50.7,11.55 -135.44,-112.61 -187.43,-36.9 -272.51,-83.12 -16.48,-8.96 -37.07,-6.71 -53.68,-33.99l48.52 -18.71c28.3,-4.15 23.37,-1.44 51.21,-10.62 62.49,-20.6 123.68,-42.58 165.69,-83 35.21,-33.88 25.79,-21.21 51.39,-60.99 35.74,12.36 116.3,81.8 205.87,-35.36 88.94,-116.35 16.74,-183.19 9.47,-217.08 6.16,-72.5 15.55,-311.81 -1.9,-370 -19.15,-63.85 -107.44,-179.51 -141.98,-221 -69.1,-83 -113.77,-94.33 -229.86,-146.67 -170.01,-76.65 -234.67,-1.2 -268.36,6 -70.05,14.95 -310.42,-11.33 -415.14,224.05 -13.67,30.72 -16.89,40.13 -30.65,71.05 -12.81,28.8 -25.15,42.17 -22.91,89.8l28.22 24.84c-10.73,28.18 -8.51,15.99 -25.43,36.68 2.14,122.44 8.1,77.83 40.33,162.35 -91.77,9.63 -133.41,70.91 -118.94,164.86 11.52,74.84 68.33,139.12 153.63,129.85 33.77,82.85 119.36,113.4 180.99,168.68 -91.23,8.72 -188.1,10.77 -272.76,30.79 -25.16,5.93 -21.72,12.83 -48.73,18.21 -55.66,11.08 -115.93,16.55 -139.15,77.81 24.2,25.22 52.26,30.99 56.39,78.45 -36.96,2.77 -69.59,7.26 -95.6,16.97 4.18,-63.7 18.65,-80.91 13.26,-158.66 -179.01,-74.87 -257.11,11.95 -313.88,-66.4 111.26,-33.36 174.36,-106.54 239.94,-191.52 121.54,7.03 156.67,6.87 196.18,-96.73 31.14,-81.63 20.98,-183.03 -57.45,-205.24 -0.29,-30.06 -5.27,-129.39 -12.05,-153.81 -10.65,-38.34 -0.19,-0.25 -14.19,-28.1l-52.03 -104.86c-9.18,-15.31 -4.38,-10.72 -14.77,-26.38l-101.02 -117.5c-54.15,-53.62 -97.37,-87.26 -178.97,-122.31 -81.93,-35.19 -168.09,-30.49 -251.36,-25.36 -271.88,16.78 -539.23,327.02 -465.78,554.73 10.16,31.54 17.87,84.13 25.75,117.11 -36.56,28.17 -52.32,20.96 -72.3,68.96 -14.64,35.17 -13.55,82.93 3.12,118.28 41.19,87.33 63.74,102.17 176.47,106.77 48.26,43.48 80.24,57.72 142.47,93.56 -25.43,32.78 1.3,10.83 -32.91,44.37 -53.36,52.33 -34.08,56.45 -161.48,48.23 -143.18,-9.24 -425.98,-193.1 -449.92,-249.33 -32.16,-75.53 -7.41,-279.52 -110.84,-173.7 -20.19,-23.25 -23.44,-63.36 -21.77,-99.25 2.18,-46.75 105.75,-177.07 135.99,-205.24l91.09 31.34c84.34,31.9 89.52,13.45 125.96,40.58 11.57,8.62 3.6,4.99 21.97,12.23 3.62,-88.43 -46.49,-216.49 -95.49,-260.78 -62.9,-56.85 -141.42,-95.64 -214.95,-135.91 20.57,-90.37 57.73,-135.69 64.33,-245.61 -291.07,36.45 -250.87,161.78 -356.36,282.85 -29.29,-30.13 -170.7,-90.88 -209.6,-92.91 -18.96,73.91 26.59,221.71 65.8,261.04l183.57 146.82c-11,62.3 -38.01,97.25 -62.34,152.84l-19.24 43.31c-1.03,2.16 -2.64,4.88 -3.65,6.95 -0.95,1.96 -2.9,4.59 -3.8,6.42 -9.32,19.11 -5.49,-15.1 -8.63,24.86 94.76,19.49 141.12,-29.87 224.61,-38.18 11.4,87.31 0.78,67.28 -6.12,80.36 -47.17,5.9 -70.64,-4.33 -119.61,12.34 -12.99,70.57 -5.74,52.05 19.63,97.35 -60.97,51.18 -5.91,61.05 -10.79,118.65 -2.76,32.49 -9.69,-15.77 -6.07,47.92l70.46 -14.34c57.33,49.42 109.43,25.19 177.36,94.28 63.75,64.85 153.69,119.88 242.88,152.78 228.8,84.38 253.08,29.65 328.98,21.11 -2.54,80.95 -6.84,71 23.81,122.33l66.04 6.03c-0.2,9.62 -22.91,144.03 -28.06,165.88 -8.34,35.31 -17.41,40.95 -19.72,82.87 -5.41,98.5 -25.57,164.4 -28.34,270.07 -5.29,201.21 -3.32,186.74 136.98,202.02 -42.18,167.34 16.96,429.92 18.77,514.46 2.99,139.5 7.29,65.25 26.26,145.44 -58.36,43.71 -71.3,23.18 -117.99,47.86l-42.24 30.67c-26.78,24.18 -22.58,21.26 -36.2,56.47 46.75,80.4 124.34,50.73 218.07,46.18 125.38,-6.07 94.49,53.45 195.76,-32.83 3.07,-70.04 -7.65,-59.75 -14.73,-100.18 -2.47,-14.1 12.2,-46.87 15.11,-78.84 3.42,-37.76 -0.23,-77.96 3.7,-113.54 3.36,-30.2 13.66,-44.98 18.05,-83.86 6.99,-61.99 0.77,-151.6 12.2,-205.47 17.26,-81.24 14.25,-107.81 19.13,-197.34z"/>
  <path class="fil5" d="M1999.73 3983.93l-10.53 160.22 59.98 4.02c24.16,78.71 47.87,57.29 13.77,164.45 -4.06,12.78 -32.09,177.05 -33.04,190.6 -6.61,93.33 -59.1,308.83 -52.83,367.97 16.31,0.15 14.68,-1.66 20.64,-2.65 63.13,-10.43 125.44,-4.26 212.34,1.52 66.61,4.43 186.77,-5.24 259.5,-8.77 50.02,-2.42 43.23,-17.48 93.12,-23.23l209.94 -41.09c108.46,-41.49 84.02,-54.05 41.99,-131.03 -52.5,-96.11 -193.31,-465.77 -159.3,-536.63 37.55,-38.93 34.84,-32.51 97.57,-30.96 2.11,-32.97 7.55,-91.57 -11.25,-107.31 -27.54,-10.49 -224.92,-24.49 -240.8,-20.09l-7.64 -26.48c-70.53,30.97 -140.05,-8.13 -210.38,-15.59 -76.36,-8.08 -119.02,-26.55 -207.77,-28.7 -24.75,61.9 -29.74,45.9 -75.31,83.75z"/>
  <path class="fil3" d="M2974.57 4150.07c59.78,117.65 18.23,128.93 107.79,124.5l17.56 -52.96 45.39 0.15c25.4,84.42 1.95,70.45 -12.1,135.91 -8.49,39.53 -24.78,91.03 -40.97,133.76 -20.86,55.09 -75.26,225.78 -67.71,277.77l389.79 92.14c163.58,4 272,7.73 413,-50.67 49.38,-20.46 19.98,-72.09 13.97,-88.22 -13.36,-35.8 -4.3,-58.64 -11.73,-93.73 -21.45,-101.2 -22.68,-16.3 -23.68,-187.88 -0.44,-46.48 -15.91,-67.68 -15.94,-83.07 -0.03,-27.28 14.89,-97.79 29.71,-120.46 68.4,17.48 -18.43,46.66 83.09,73.95 44.05,-39.26 32.77,-97.85 35.36,-174.69l-105.57 -40.23c-49.64,-14.93 -84.2,10.78 -136.93,2.47 -76.01,-11.97 -49.06,-33.1 -78.86,-67.49 -15.4,-17.74 -86.3,-37.9 -119,-36.91l-14.56 53.37c-78.94,-24 -10.39,-16.18 -68.52,-66.2 -70.38,16.48 -28.29,36.38 -84.67,62.8 -31.08,14.55 -90.3,11.9 -130.16,26.85 -34.84,13.08 -80.96,29.95 -107.66,37.4l-117.6 41.44z"/>
  <path class="fil6" d="M3697.38 3407.02c57.2,-2.92 111.06,40.72 104.02,91.45 -26.9,2.68 -33.75,1.22 -57.49,-9.45 -6.84,-3.08 -25.47,-14.29 -26.51,-15.07 -18.22,-13.56 -11.34,-7.7 -25.71,-24.96l5.69 -41.97zm-334.64 -70.15c33.04,2.2 47.68,10.88 80.49,19.03l18.5 72.78c-45.57,4.95 -94.69,-7.48 -116.37,-40.37 -8.51,-12.92 -6.64,-0.57 -6.38,-15.62l23.76 -35.82zm-257.77 -118.03c-8.98,48.45 -45.93,58.99 -22.85,121.9 40.71,110.92 33.44,75.83 69.28,103.19 -15.21,70.03 -57.34,33.34 -118.5,73.25 -5.77,47.66 -8.22,123.84 49.46,141.52l18.15 -39.16c86.19,20.68 70.06,178.77 370.14,265.92 40.31,11.72 106.8,6.25 151.7,5.83 142.38,-1.3 231.03,-62.48 332.3,-148.99l18 38.36c0.63,1.6 1.58,5.01 2.77,7.34 107.17,-6.66 145.16,-79.06 133.93,-177.91 -32.45,-22.45 -45.14,-17.79 -86.22,-26.51 2.76,-23.55 14.34,-36.89 15.06,-57.01 0.95,-26.06 -10.83,-38.63 -18.58,-62.61 -119.06,-2 -104.44,-52.67 -157.98,-93.12 -50.76,-38.33 -78.96,-81.01 -114.66,-133.48 -70.05,26.71 -30.04,47.26 -119.98,13.44 -56.42,-21.22 -33.37,5.08 -75.88,2.91l-285.45 -53.91c-55.37,5.92 -109.59,16.79 -160.69,19.04z"/>
  <path class="fil7 str0" d="M2148.36 3390.18c1.45,49.73 -0.61,52.3 -42.27,74.87 -22.96,12.44 -62.45,33.36 -83.17,10.54 -52.87,-58.26 92.02,-78.45 125.44,-85.41zm335.17 10.78c1.39,-38.19 11.61,-48.93 45.07,-63.12 32.31,-13.72 47.68,-13.69 73.72,-7.31 2.31,0.56 6.5,6.93 8.12,4.36 1.63,-2.56 5.26,3.29 7.77,5.12 7.46,46.33 -84.45,97.37 -134.68,60.95zm234.75 243.2c25.01,-33.22 14.42,-29.23 42.15,-38.06 11.91,25.18 25.18,15.15 -10.79,51.45 71.5,20.26 192.14,-80.18 102.71,-209.71l-86.03 11.02c8.43,-60.45 19.55,-58.46 56.42,-87.63 -0.07,-55.86 -17.18,-86.51 -14.31,-161.91 -58.68,-15.29 -171.63,-29.68 -234.77,-16.15 -51.75,11.07 17.84,8.11 -104.26,22.5 -58.35,6.89 -42.54,26.13 -113.96,20.09 -75.05,-48.33 -35.03,-69.59 -72.69,-132.51l-5.88 16.71c-0.03,1.71 0.33,5.09 0.4,7.15 0.43,11.78 4.31,15.53 3.57,36.11 -0.93,26.5 -13.2,53.2 -27.16,65.08 -19.93,16.97 -103.67,50.44 -129.22,58.78 -93.82,30.6 -199.11,45.57 -292.84,70.05l20.63 117.83c35.41,22.98 43.54,4.7 42.47,58.6 -20.15,11.1 -74.98,30.69 -94.52,39.21 -4.44,66.44 2.69,117.86 56.78,139.14 6.82,-10.22 2.02,-2.44 8.55,-20.15 0.75,-2.02 1.46,-5.68 2.29,-7.86l9.94 -22.23 82.35 63.28c90.55,75.11 209.44,122.32 343.04,124.04 225.68,2.89 311.36,-72.45 415.13,-204.83z"/>
  <path class="fil8" d="M1188.6 2616.1c32.52,15.84 95.52,-4.09 130.82,-21.78 12.95,-6.5 211.9,-251.24 339.94,-344.74 103.85,-75.82 201.13,-152.86 318.6,-212.01 154.79,-77.92 309.82,-139.26 511.29,-182.57 34.29,-7.37 32,-13.42 64.78,-18.03l237.29 -27.43c214.99,-2.59 155.1,-0.86 332.61,20.21 64.02,7.59 98.47,1.19 151.42,18.41 52.01,16.91 181.45,34.51 277.8,75.72l127.6 48.49c74.74,31.99 160.62,82.36 223.16,120.17 123.18,74.45 201.47,127.52 300.34,219.16 144.69,134.09 295.16,305.21 390.17,481.88 92.98,172.93 47.2,176.9 192.51,161.89 2.53,-96.97 -252.55,-458.36 -340.98,-553.32 -17.24,-18.51 -28.9,-27.95 -44.8,-48.54 -187,-242.28 -693.17,-538.65 -964.43,-585.63l-309.84 -55.46c-444.16,-62.48 -961.31,62.46 -1295.79,282.87 -42.88,28.26 -76.88,38.49 -116.52,70.07 -203.22,161.88 -287.68,210.48 -462.41,441.33 -24.37,32.19 -71.57,75.27 -63.56,109.31z"/>
  <path class="fil0" d="M2768.4 4347.38c11.25,109.84 135.34,324.7 129.75,405 -2.31,1.53 -6.06,0.73 -7.17,4.23 -2.73,8.63 -9.31,5.19 -13.82,8.5 -10.93,8.03 -2.74,-1.05 -17.37,14.47 -42.68,45.25 -39.11,40.21 -136.5,79.6 39.61,39.81 21.39,105.84 4.55,161.72 -27.58,91.54 -38.72,469.56 -37.8,581.99l120.78 85.87c15.3,21.48 6.9,20.35 0.68,50.31 22.87,-23.57 36.89,-52.02 70.61,-75.85 40.04,-28.29 57.23,-22.85 103.18,-38.55 9,-81.53 14.25,-116.33 30.21,-194.23 11.66,-56.99 49.33,-116.17 46.95,-181.94 -54.48,-20.58 -36.99,-12.94 -69.75,-49.59 -16.79,-132.99 12.1,-262.25 32.75,-377.79 -21.37,-14.97 -33.17,-23.01 -58.44,-32.4 -3.69,-67.84 31.34,-209.03 49.86,-286.03 7.35,-30.51 47.47,-124.82 41.49,-161.27l-81.77 -2.18 -29.24 -57.61c-44.53,19.73 -26.37,22.81 -81.57,36.38 -28.92,7.1 -71.4,16.96 -97.38,29.37z"/>
  <path class="fil9" d="M3091.9 3173.08l24.71 4.77c35.08,-8.48 -22.43,-13.39 69.59,-13.09l160.35 0.5c14.16,-17.51 23.39,-41.53 47.34,-54.11 28.82,25.97 14.08,32.37 40.1,60.58 59.92,0.99 18.34,-1.2 63.75,-18.82 115.75,61.64 28,4.2 139.75,-1.11 55.25,147.63 98.05,-94.53 160.13,23.36l19.1 42.76c11.74,19.77 6.62,10.08 13.8,18.85 10.07,-31.62 12.94,-47.34 62.84,-54.38 2.14,55.84 -18.27,57.47 -17.22,134.8l44.64 14.1 4.72 71.12c31.66,18.94 84.73,22.3 107.36,46.81 27.19,29.44 -5.72,13.27 47.5,55.29l34.43 22.6c0.34,-67.59 -20.45,-50.53 -24.63,-103.34 -8.38,-105.63 16.21,-179.11 -31.82,-279.56 -3.6,-7.54 -22.88,-32.8 -30.72,-43.77 -110.44,-154.29 -121.48,-158.25 -281.36,-227.59 -113.09,-49.05 -162.69,-11.85 -202.56,3.13 -58.72,22.04 -102.07,-13.65 -170.56,18.18 -70.78,32.89 -102.58,-6.46 -196.39,124.92 -19.59,27.42 -88.27,133.85 -84.85,154z"/>
  <path class="fil10" d="M849.69 3484.62c-37.65,56.72 -15.06,300.91 -14.67,385.07 0.69,147.46 42.07,367.93 84.42,502.53 65.46,208.01 191.32,478.99 332.63,642.5 28.68,33.17 63.86,74.92 89.6,107.49 87.26,110.41 294.66,298.32 412.01,366.97 49.51,28.96 68.42,59.67 135.05,52.81 10.77,-30.5 18.82,-51.42 21.51,-86.45 -33.02,-28.13 -72.95,-46.25 -117.32,-78.62 -217.11,-158.36 -228.37,-179.01 -397.51,-360.24 -182.03,-195.04 -391.47,-631.54 -417.41,-897.87 -6.91,-70.92 -24.08,-85.37 -25.32,-176.4 -2.32,-170.67 -5.93,-258.64 -56.9,-407.78 -4.98,-14.57 -8.2,-22.6 -18.65,-33.18 -15.77,-15.95 -4.36,-9.13 -27.44,-16.83z"/>
  <path class="fil2" d="M3913.34 5435.3c-2.33,55.29 -15.89,126.92 51.98,97.8 88.98,-38.18 294.64,-220.3 371.47,-284.66 99.61,-83.46 274.87,-327.26 351.39,-458.5 40.45,-69.34 72.64,-140.66 107.56,-213.94 17.23,-36.17 36.74,-81.33 47.72,-117.66 37.26,-123.2 84.27,-254.9 99.96,-385.81 -73.07,6.71 -50.52,30.05 -87.27,75.63 -78.87,97.87 -41.3,6.61 -99.01,201.71 -51.85,175.27 -53.39,154.25 -129.88,316.17 -140.97,298.45 -430.11,593.51 -713.92,769.26z"/>
  <path class="fil9" d="M1830.52 3304.45c87.6,-2.1 107.14,-41.76 126.81,-49.36 9.62,-3.71 170.62,-29.55 260.15,-81.75 2.54,-56.51 -0.28,-80.32 -7.23,-124.42 52.2,-3.9 75.27,-9.24 120.5,-2.43l44.54 116.09c39.52,2.4 120.71,-16.74 187.84,-15.19 68.69,1.6 128.1,11.69 203.66,11.61 -18.17,-66.16 -51.02,-79.1 -89.72,-119.74 -31.12,-32.66 -69.73,-78.21 -108.21,-99.51 -358.45,-198.6 -678.25,87.19 -718.47,287.37 -8.14,40.53 -7.2,46.84 -19.87,77.33z"/>
  <path class="fil1" d="M3055.65 4850.82c0.74,1.74 1.13,4.58 1.53,5.48l5.04 11.16c43.22,93.2 -34.69,250.65 -4.14,304.43 41.46,33.08 199.99,47.42 250.78,14.34 3.17,-6.27 4.01,-33.41 4.15,-34.48 10.64,-71.82 10.1,-50.8 28.05,-98.64l19.98 -44.88 55.16 10.32c31.31,5.79 20.28,12.78 45.92,34.96l1.98 155.78c18.8,17.17 32.56,29.91 62.22,28.17 47.16,-2.76 198.3,-10.29 208.58,-52.17 3.98,-16.3 24.64,-169.69 17.98,-285.3 -76.34,5.96 -81.44,27.42 -172.03,30.21 -375,11.48 -450.3,-77.25 -525.2,-79.38z"/>
  <path class="fil7" d="M2325.21 5019.16c-1.11,-22.46 -8.02,-20.63 11.09,-15.92 -3.12,-14.74 -6.39,-10.82 7.79,-13.07 -0.33,-37.93 -8.6,-14.96 12.61,-39.29 -14.04,-19.53 -2.34,-15.41 -39.84,-13.01l-207.36 3.39c42.73,81.97 23.84,234.23 24.01,340.77 0.12,72.53 19.44,185.94 23.5,320.96 121.71,3.63 111.14,15.97 110.41,-71.49 -1.24,-148 19.93,-147.43 25.88,-228.34 8.4,-114.32 25.18,-170.85 31.91,-284z"/>
  <path class="fil7" d="M2461.98 4930.74c57.56,70.28 51.32,526.67 72.76,671.24l123.42 3.33c4.51,-94.97 -51.25,-35.73 -26.72,-374.51l48.32 -352.29 -217.78 52.23z"/>
  <path class="fil6" d="M3994.77 4277.53l-12.14 39.05c45.31,25.88 -12.3,-4.98 44.46,11.75l19.32 7.41c102.57,-4.27 192.17,58.6 349.89,-97.27 56.13,-55.48 59.94,-117.33 150.8,-128.78 10.29,-1.3 25.45,1.75 25.68,1.76l155.02 -13.58c27.03,-65.88 -8.71,-20 44.83,-73.54 -17.42,-25.87 4.27,-8.3 -34.69,-22.85l9.2 -44.47c-52.33,-29.28 -81.45,-2.75 -147.51,-0.08 -26.46,28.84 -45.31,71.07 -75.44,97.46 -105.26,92.21 -211.04,174.45 -346.15,194.13 -20.9,3.06 -61.82,-6.01 -89.39,-10.54 -63.1,-10.38 -39.08,-38.19 -84.91,-28.47l-8.97 68.02z"/>
  <path class="fil7" d="M1238.24 3681.63c-3.5,2.17 -21.42,10.33 -24.25,12.02 -6.39,14.2 19.1,10.03 -18.79,13.8 -50,-3.32 -82.97,65.04 106.16,103.59 79.19,16.14 147.69,129.53 321.32,198.94 48.41,19.35 130.88,34.25 192.7,35.04 127.28,1.64 111.09,10.74 119.05,-45.8 -110.36,23.26 -145.1,11.4 -233.02,-16.19 -99.04,-31.09 -237.83,-129.03 -303.92,-193.89 -68.32,-67.05 -39.53,-92.86 -80.5,-167.21 -14.27,26.02 -2.8,56.02 -12.69,100.65l-49.6 2.71 -16.46 -43.66z"/>
  <path class="fil6" d="M3127.99 5702.13c21.12,-60.97 13.26,-134.48 49.16,-211.01 21.61,-46.11 12.92,-57.01 17.68,-115.7 1.7,-21.12 4.72,-40.91 6.58,-62.39l-2.33 -48.55 -70.73 1.66c-1.53,79.23 -62.99,189.02 -76.24,394.31 -103.73,60.1 -94.96,24.92 -117.98,49.47l193.86 -7.79z"/>
  <path class="fil6" d="M3674.27 5735.13c34.6,4.51 21.94,-24.61 137.69,-26.99 -42.76,-53.39 -49.87,-17.92 -108.03,-50.57 -36.26,-20.35 -57.48,-44.4 -72.25,-81.75 -24.39,-61.62 -22.34,-209.68 -19.37,-286.06l-86 0.15c10.84,76.28 -5.82,157.32 17.89,226.49 8.97,26.16 28.91,45.87 34.66,90.31 6.16,47.57 -13.26,39.18 0.8,94.06 19.4,7.38 28.85,5.42 47.65,11.56 41.63,13.63 21.22,46.76 38.5,18.67 1.47,-2.38 5.57,2.91 8.46,4.13z"/>
  <path class="fil7" d="M2900.73 4032.85c11.39,32.21 12.65,28.37 50.79,56.05l168.1 -66.03c69.28,-24.38 136.18,-39.2 222.35,-27.95l37.93 -35.24c13.7,-9.21 28.81,-14.74 40.95,-23.38 -49.82,-11.98 -80.62,-20.76 -124.1,1.68 -33.85,17.48 -188.58,27.78 -276.71,56.91 -59.43,19.64 -86.36,0.31 -119.31,37.96z"/>
  <path class="fil6" d="M2721.93 4164.73l3.5 91.52c62.37,2.12 98.24,0.99 158.49,-7.91 63.4,-9.37 55.23,-23.51 49.22,-94.85l-211.21 11.24z"/>
  <path class="fil11" d="M966.52 3094.13l159.15 1.01c-18.03,-29.87 -204.12,-152.92 -223.96,-158.71 7.01,80.03 31.81,114.23 64.81,157.7z"/>
  <path class="fil8" d="M1334.82 3112.46l261.3 134.02c-33,-41.26 -25.21,-100.21 -78.25,-138.35 -57.59,-41.4 -116.86,-0.24 -183.05,4.33z"/>
  <path class="fil8" d="M5055.41 3610.2c11.69,-28.14 3.97,-71.2 -11.41,-102.05 -31.76,-63.64 -126.02,-66.54 -201.46,-57.92 61.72,34.81 163.97,145.48 212.87,159.97z"/>
  <path class="fil1" d="M1211.64 2826.05c-6.21,139.62 10.57,76.48 25.79,169.23 7.84,-14.03 19.47,-36.06 25.87,-50.6 6.29,-14.31 5.8,-17.32 10.88,-29.88 16.78,-41.51 61.3,-116.15 71.28,-157.84 -49.02,-2.3 -107.88,47.65 -133.82,69.09z"/>
  <path class="fil3" d="M1084.21 3454.08c37.54,-5.58 123.7,-33.81 139.45,-71.82 27.79,-67.08 5.52,-90.6 -2.64,-166.11l-136.81 237.93z"/>
  <path class="fil3" d="M4530.82 3729.54c47.19,10.1 118.81,-10.01 144.96,-31.89 36.06,-30.18 31.37,-104.39 26.1,-159.7 -35.71,31.37 -58.71,63.43 -87.04,99.03 -23.59,29.65 -58.48,66.12 -84.02,92.56z"/>
  <path class="fil1" d="M4770.85 3157.56l-2.19 157.02c20.09,-13.27 61.79,-92.42 76.1,-112.19 30.23,-41.7 59.65,-77.51 84.32,-112.04 -55.44,3.15 -130.51,37.73 -158.23,67.21z"/>
  <path class="fil11" d="M4465.31 3324.12c24.91,15.62 46.72,29.24 67.01,51.08l92.07 -2.68 -45.23 -43.85c-1.49,-1.46 -3.75,-3.5 -5.24,-4.94l-43.41 -54.95 -78.61 -75.12c-15.8,23.49 1.03,59.91 13.41,130.46z"/>
  <path class="fil9" d="M2573.52 5729.39l192.05 0.27c-42.35,-45.88 -100.56,-30.3 -150.64,-92.51l-68.16 12.12 26.75 80.12z"/>
  <path class="fil4" d="M2483.53 3400.96c50.23,36.42 142.14,-14.62 134.68,-60.95 -2.51,-1.83 -6.14,-7.68 -7.77,-5.12 -1.62,2.57 -5.81,-3.8 -8.12,-4.36 -26.04,-6.38 -41.41,-6.41 -73.72,7.31 -33.46,14.19 -43.68,24.93 -45.07,63.12z"/>
  <path class="fil4" d="M2148.36 3390.18c-33.42,6.96 -178.31,27.15 -125.44,85.41 20.72,22.82 60.21,1.9 83.17,-10.54 41.66,-22.57 43.72,-25.14 42.27,-74.87z"/>
  <path class="fil4" d="M3461.73 3428.68l-18.5 -72.78c-32.81,-8.15 -47.45,-16.83 -80.49,-19.03l-23.76 35.82c-0.26,15.05 -2.13,2.7 6.38,15.62 21.68,32.89 70.8,45.32 116.37,40.37z"/>
  <path class="fil9" d="M2082.11 5683.57c-20.42,20.37 -6.1,14.62 -43.69,18.41 -37.21,2.22 -18.18,-8.95 -37.63,16.15 11.72,8.08 -7.46,8.49 32.53,12.92l73.69 -14.58 19.19 -9.58c49.4,-15.09 84.31,-10.75 131.75,7.25l6.01 -42.09 -164.98 7.63 -16.87 3.89z"/>
  <path class="fil4" d="M3801.4 3498.47c7.04,-50.73 -46.82,-94.37 -104.02,-91.45l-5.69 41.97c14.37,17.26 7.49,11.4 25.71,24.96 1.04,0.78 19.67,11.99 26.51,15.07 23.74,10.67 30.59,12.13 57.49,9.45z"/>
  <path class="fil11" d="M4774.49 3402.8c36.37,8.85 88.85,-4.49 125.45,-21.07 20.52,-9.31 11.95,-4.95 25.06,-15.27 -30.25,-17.83 -39.58,-34.09 -66.89,-47.66 -29.33,23.49 -17.09,16.78 -37.59,46.18 -18.68,26.81 -25.59,19.93 -46.03,37.82z"/>
  <path class="fil11" d="M1280.92 3084.41l84.96 -38.6c20.17,-8.18 15.89,-7.11 25.67,-17.27 -21.26,-21.23 -43.37,-36.99 -75.6,-42.44 -11.7,58.19 -24.1,46.38 -35.03,98.31z"/>
  <path class="fil12" d="M2356.7 4950.88c-21.21,24.33 -12.94,1.36 -12.61,39.29 -14.18,2.25 -10.91,-1.67 -7.79,13.07 -19.11,-4.71 -12.2,-6.54 -11.09,15.92 19.15,0 14.16,4.24 11.09,-15.92 19.19,4.46 13.83,6.47 7.79,-13.07l12.61 -39.29c23.86,1.99 14.64,-1.13 30.72,11.76 5.19,-36.63 -15.65,-16.02 19.95,-29.82 10.23,16.39 6.73,-1.35 11.64,26.79 3.33,19.13 -12.83,166.94 12.85,205.4 4.48,-56.18 -0.37,-175.01 -0.17,-238.73l-114.83 11.59c37.5,-2.4 25.8,-6.52 39.84,13.01z"/>
  <path class="fil1" d="M4770.3 3604.59c37.57,-4.65 12.58,-0.96 34.72,-26.63 19.6,-22.74 17.5,-12.23 32.28,-40.57 -15.1,-16.85 -39.43,-43.44 -68.03,-48.33l1.03 115.53z"/>
  <path class="fil1" d="M1296.24 3266.88c15.46,-4.4 37.62,-0.02 51.39,-61.79 -25.62,-24.6 -44.36,-37.81 -84.61,-43.24 10.43,34.81 10.92,19.85 19.33,46.5 6.7,21.28 8.61,43.04 13.89,58.53z"/>
  <path class="fil8" d="M1062.48 3168.55l74.38 56.88 37.77 -81.34c-57.31,-6.16 -50.98,11.23 -112.15,24.46z"/>
  <path class="fil8" d="M4626.71 3511.94c37.72,-23.62 43.73,-35.86 48.12,-70.8l-107.08 5.99 58.96 64.81z"/>
  <path class="fil9" d="M2082.11 5683.57l-43.69 18.41c37.59,-3.79 23.27,1.96 43.69,-18.41l16.87 -3.89 164.98 -7.63 -6.01 42.09c-47.44,-18 -82.35,-22.34 -131.75,-7.25l-19.19 9.58c30.66,-1.67 63.91,-6.96 93.95,-4.55 32.24,2.57 47.73,17.14 56.99,2.22 9.31,-8.41 21.6,11.93 9.41,-43.09 -27.96,-7.32 -151.99,-16.17 -168.38,8.63l-16.87 3.89z"/>
  <path class="fil3" d="M4658.96 3286.52c15.25,38.11 30.54,54.04 62.67,62.88 -17.33,-47.23 -13.68,-54.3 -25.56,-107.26l-37.11 44.38z"/>
  <path class="fil3" d="M1126.31 2996.96c22.35,27.88 32.03,26.84 69.48,48.12 -41.46,-104.51 -21.75,-79.44 -59.07,-91.23l-10.41 43.11z"/>
  <path class="fil13" d="M4577.94 3815.89c34.03,-11.27 46.58,-4.77 75.05,-2.18 5.52,16.8 8.33,38.8 18.19,56.08 13.32,-24.14 13.02,-59.5 12.98,-95.05 -38.17,-1.96 -56.37,-5.4 -91.39,10.63l68.04 -2.26c12.13,19.05 18.63,-27.4 6.38,45.97 -15.5,-32.28 10.92,0.1 -12.01,-16.23 -55.85,-39.74 -76,2.19 -77.24,3.04z"/>
  <path class="fil11" d="M4465.31 3324.12l44.59 43.02c38.24,24.53 80.04,18.17 133.6,15.87l-52.49 -56.16c-12.01,-12.17 -17.3,-17.41 -25.81,-25.77l-34.69 -32.3 43.41 54.95c1.49,1.44 3.75,3.48 5.24,4.94l45.23 43.85 -92.07 2.68c-20.29,-21.84 -42.1,-35.46 -67.01,-51.08z"/>
  <path class="fil12" d="M3283.91 5259.88c31.05,-19.12 76.96,-36.46 95.19,-66.35 4.9,-8.03 8.83,-27.93 9.66,-30.98 -0.57,11.53 -2.68,22.95 0.1,36.68 9.76,48.29 8.17,22.18 16.8,33.68 -5.98,-31.1 -9.75,-65.09 -13.02,-85.47 -35.79,42.05 1.81,31.52 -54.42,68.06 -1.77,1.15 -4.22,2.9 -6.02,4.04 -46.88,29.54 -28.62,8.37 -48.29,40.34z"/>
  <path class="fil13" d="M1194.53 3629.17c48.24,8.36 27.57,-15.93 27.05,35l-27.05 -35zm19.46 64.48l-18.79 13.8c37.89,-3.77 12.4,0.4 18.79,-13.8 2.83,-1.69 20.75,-9.85 24.25,-12.02 -5,-58.41 8.66,-62.79 -54.89,-59.1 11.51,46.64 19.66,10.79 30.64,71.12z"/>
  <path class="fil14" d="M2718.28 3644.16c26.51,-12.84 2.9,-0.33 21.78,-12.99l20.24 -14.39c-6.3,23.89 -3.28,18.94 -10.66,40.77 35.97,-36.3 22.7,-26.27 10.79,-51.45 -27.73,8.83 -17.14,4.84 -42.15,38.06z"/>
  <path class="fil14" d="M4046.41 4335.74l-19.32 -7.41c-56.76,-16.73 0.85,14.13 -44.46,-11.75l12.14 -39.05c-4.36,6.29 -11.31,10.02 -14.83,21.98 -10.19,34.65 -6.53,-0.06 -0.34,34.88l66.81 1.35z"/>
  <path class="fil15" d="M1221.58 3664.17c0.52,-50.93 21.19,-26.64 -27.05,-35l27.05 35z"/>
  <path class="fil16" d="M261.44 6040.53l-1.72 131.75c1320.58,7.43 2696.34,-10.13 4026.75,-15.31l1014.21 -3.97c185.18,-0.55 164.87,20.02 156.37,-129.89l-5195.61 17.42z"/>
  <polygon class="fil17" points="465.18,6543.97 465.18,6298.72 373.6,6298.72 373.6,6266.12 593.63,6266.12 593.63,6298.72 502.04,6298.72 502.04,6543.97 "/>
  <path id="_1" class="fil17" d="M632.37 6543.97l0 -277.85 123.14 0c24.77,0 43.59,2.52 56.46,7.5 12.87,4.98 23.16,13.78 30.85,26.39 7.7,12.61 11.52,26.58 11.52,41.85 0,19.72 -6.41,36.34 -19.15,49.86 -12.74,13.52 -32.4,22.06 -59.05,25.74 9.77,4.66 17.14,9.32 22.19,13.84 10.73,9.83 20.89,22.19 30.4,37l48.05 75.67 -45.92 0 -36.74 -57.82c-10.67,-16.75 -19.53,-29.49 -26.45,-38.35 -6.98,-8.86 -13.19,-15.01 -18.69,-18.57 -5.43,-3.49 -11.06,-5.95 -16.75,-7.37 -4.14,-0.84 -10.93,-1.29 -20.44,-1.29l-42.56 0 0 123.4 -36.86 0zm36.86 -155.22l78.91 0c16.81,0 29.88,-1.75 39.32,-5.24 9.44,-3.43 16.62,-8.99 21.47,-16.69 4.92,-7.63 7.38,-15.91 7.38,-24.9 0,-13.13 -4.72,-23.99 -14.23,-32.47 -9.51,-8.47 -24.51,-12.67 -45.02,-12.67l-87.83 0 0 91.97z"/>
  <path id="_2" class="fil17" d="M1093.83 6266.12l36.87 0 0 160.46c0,27.94 -3.17,50.13 -9.45,66.55 -6.33,16.37 -17.72,29.76 -34.15,40.04 -16.49,10.28 -38.03,15.46 -64.8,15.46 -25.94,0 -47.22,-4.47 -63.71,-13.46 -16.56,-8.99 -28.33,-21.92 -35.38,-38.93 -7.05,-17.01 -10.6,-40.23 -10.6,-69.66l0 -160.46 36.86 0 0 160.4c0,24.12 2.27,41.97 6.73,53.36 4.46,11.44 12.09,20.3 23.02,26.45 10.87,6.21 24.19,9.31 39.91,9.31 26.9,0 46.11,-6.14 57.56,-18.37 11.45,-12.29 17.14,-35.83 17.14,-70.75l0 -160.4z"/>
  <polygon id="_3" class="fil17" points="1190.52,6543.97 1190.52,6266.12 1227.38,6266.12 1227.38,6511.37 1363.98,6511.37 1363.98,6543.97 "/>
  <path id="_4" class="fil17" d="M1457.44 6543.97l0 -117.71 -107.1 -160.14 44.24 0 54.91 84.08c10.22,15.59 19.73,31.17 28.39,46.76 8.47,-14.55 18.76,-30.85 30.72,-48.96l53.81 -81.88 42.88 0 -110.98 160.14 0 117.71 -36.87 0z"/>
  <polygon id="_5" class="fil17" points="1740.34,6543.97 1740.34,6266.12 1777.21,6266.12 1777.21,6380.6 1920.79,6380.6 1920.79,6266.12 1957.66,6266.12 1957.66,6543.97 1920.79,6543.97 1920.79,6413.19 1777.21,6413.19 1777.21,6543.97 "/>
  <polygon id="_6" class="fil17" points="2019.81,6543.97 2019.81,6266.12 2220.43,6266.12 2220.43,6298.72 2056.67,6298.72 2056.67,6384.09 2209.96,6384.09 2209.96,6416.69 2056.67,6416.69 2056.67,6511.37 2227.03,6511.37 2227.03,6543.97 "/>
  <polygon id="_7" class="fil17" points="2276.32,6543.97 2276.32,6266.12 2313.18,6266.12 2313.18,6511.37 2449.78,6511.37 2449.78,6543.97 "/>
  <path id="_8" class="fil17" d="M2493.7 6543.97l0 -277.85 104.91 0c18.43,0 32.53,0.9 42.29,2.65 13.65,2.26 25.1,6.6 34.35,12.94 9.25,6.4 16.68,15.32 22.31,26.77 5.63,11.45 8.41,24.06 8.41,37.84 0,23.54 -7.5,43.53 -22.57,59.82 -15.01,16.37 -42.24,24.52 -81.56,24.52l-71.27 0 0 113.31 -36.87 0zm36.87 -145.91l71.79 0c23.8,0 40.61,-4.4 50.64,-13.26 9.96,-8.86 14.94,-21.28 14.94,-37.38 0,-11.58 -2.91,-21.54 -8.8,-29.82 -5.88,-8.28 -13.64,-13.77 -23.22,-16.43 -6.2,-1.61 -17.65,-2.45 -34.27,-2.45l-71.08 0 0 99.34z"/>
  <polygon id="_9" class="fil17" points="2855.31,6543.97 2855.31,6266.12 3042.74,6266.12 3042.74,6298.72 2892.18,6298.72 2892.18,6385.25 3022.56,6385.25 3022.56,6417.85 2892.18,6417.85 2892.18,6543.97 "/>
  <path id="_10" class="fil17" d="M3079.16 6408.73c0,-46.05 12.41,-82.14 37.19,-108.2 24.77,-26.07 56.72,-39.07 95.91,-39.07 25.68,0 48.77,6.15 69.4,18.37 20.57,12.22 36.28,29.3 47.08,51.22 10.81,21.87 16.24,46.7 16.24,74.45 0,28.13 -5.69,53.36 -17.08,75.54 -11.38,22.25 -27.48,39.06 -48.31,50.45 -20.89,11.45 -43.4,17.14 -67.52,17.14 -26.2,0 -49.54,-6.34 -70.18,-18.95 -20.56,-12.62 -36.22,-29.82 -46.82,-51.68 -10.61,-21.8 -15.91,-44.89 -15.91,-69.27zm38.03 0.65c0,33.44 8.99,59.76 26.97,78.97 17.98,19.21 40.55,28.84 67.71,28.84 27.69,0 50.39,-9.7 68.3,-29.1 17.85,-19.4 26.78,-46.96 26.78,-82.66 0,-22.57 -3.82,-42.3 -11.45,-59.11 -7.63,-16.82 -18.82,-29.88 -33.5,-39.13 -14.75,-9.25 -31.24,-13.91 -49.54,-13.91 -26,0 -48.38,8.93 -67.14,26.78 -18.76,17.85 -28.13,47.6 -28.13,89.32z"/>
  <path id="_11" class="fil17" d="M3574.26 6266.12l36.87 0 0 160.46c0,27.94 -3.17,50.13 -9.45,66.55 -6.33,16.37 -17.72,29.76 -34.15,40.04 -16.49,10.28 -38.03,15.46 -64.8,15.46 -25.94,0 -47.22,-4.47 -63.71,-13.46 -16.56,-8.99 -28.33,-21.92 -35.38,-38.93 -7.05,-17.01 -10.6,-40.23 -10.6,-69.66l0 -160.46 36.86 0 0 160.4c0,24.12 2.27,41.97 6.73,53.36 4.46,11.44 12.09,20.3 23.02,26.45 10.87,6.21 24.19,9.31 39.91,9.31 26.9,0 46.11,-6.14 57.56,-18.37 11.45,-12.29 17.14,-35.83 17.14,-70.75l0 -160.4z"/>
  <polygon id="_12" class="fil17" points="3672.11,6543.97 3672.11,6266.12 3709.88,6266.12 3855.66,6484.21 3855.66,6266.12 3890.98,6266.12 3890.98,6543.97 3853.21,6543.97 3707.43,6325.88 3707.43,6543.97 "/>
  <path id="_13" class="fil17" d="M3952.74 6543.97l0 -277.85 95.72 0c21.6,0 38.1,1.29 49.48,3.94 15.91,3.69 29.49,10.35 40.75,19.92 14.68,12.42 25.61,28.2 32.85,47.48 7.31,19.27 10.93,41.33 10.93,66.1 0,21.08 -2.46,39.77 -7.37,56.07 -4.92,16.3 -11.25,29.82 -18.95,40.49 -7.76,10.67 -16.17,19.08 -25.35,25.16 -9.12,6.14 -20.18,10.8 -33.12,13.97 -13,3.17 -27.87,4.72 -44.69,4.72l-100.25 0zm36.87 -32.6l59.24 0c18.3,0 32.66,-1.68 43.07,-5.11 10.42,-3.42 18.7,-8.21 24.91,-14.42 8.66,-8.73 15.45,-20.5 20.3,-35.25 4.85,-14.74 7.31,-32.6 7.31,-53.62 0,-29.1 -4.78,-51.48 -14.29,-67.13 -9.51,-15.65 -21.09,-26.13 -34.73,-31.43 -9.83,-3.82 -25.68,-5.69 -47.54,-5.69l-58.27 0 0 212.65z"/>
  <path id="_14" class="fil17" d="M4202.52 6543.97l106.59 -277.85 40.42 0 113.12 277.85 -41.85 0 -32.14 -84.21 -117 0 -30.14 84.21 -39 0zm79.94 -114.09l94.68 0 -28.97 -77.03c-8.73,-23.41 -15.33,-42.75 -19.92,-58.01 -3.82,18.1 -8.93,35.89 -15.33,53.48l-30.46 81.56z"/>
  <polygon id="_15" class="fil17" points="4533.67,6543.97 4533.67,6298.72 4442.09,6298.72 4442.09,6266.12 4662.12,6266.12 4662.12,6298.72 4570.53,6298.72 4570.53,6543.97 "/>
  <polygon id="_16" class="fil17" points="4706.29,6543.97 4706.29,6266.12 4743.16,6266.12 4743.16,6543.97 "/>
  <path id="_17" class="fil17" d="M4796.65 6408.73c0,-46.05 12.41,-82.14 37.19,-108.2 24.77,-26.07 56.72,-39.07 95.91,-39.07 25.68,0 48.77,6.15 69.4,18.37 20.57,12.22 36.28,29.3 47.08,51.22 10.81,21.87 16.24,46.7 16.24,74.45 0,28.13 -5.69,53.36 -17.08,75.54 -11.38,22.25 -27.48,39.06 -48.31,50.45 -20.89,11.45 -43.4,17.14 -67.52,17.14 -26.2,0 -49.54,-6.34 -70.18,-18.95 -20.56,-12.62 -36.22,-29.82 -46.82,-51.68 -10.61,-21.8 -15.91,-44.89 -15.91,-69.27zm38.03 0.65c0,33.44 8.99,59.76 26.97,78.97 17.98,19.21 40.55,28.84 67.71,28.84 27.69,0 50.39,-9.7 68.3,-29.1 17.85,-19.4 26.78,-46.96 26.78,-82.66 0,-22.57 -3.82,-42.3 -11.45,-59.11 -7.63,-16.82 -18.82,-29.88 -33.5,-39.13 -14.75,-9.25 -31.24,-13.91 -49.54,-13.91 -26,0 -48.38,8.93 -67.14,26.78 -18.76,17.85 -28.13,47.6 -28.13,89.32z"/>
  <polygon id="_18" class="fil17" points="5109.36,6543.97 5109.36,6266.12 5147.13,6266.12 5292.91,6484.21 5292.91,6266.12 5328.23,6266.12 5328.23,6543.97 5290.46,6543.97 5144.68,6325.88 5144.68,6543.97 "/>
  <polygon id="_19" class="fil18 str1" points="465.18,6543.97 465.18,6298.72 373.6,6298.72 373.6,6266.12 593.63,6266.12 593.63,6298.72 502.04,6298.72 502.04,6543.97 "/>
  <path id="_20" class="fil18 str1" d="M632.37 6543.97l0 -277.85 123.14 0c24.77,0 43.59,2.52 56.46,7.5 12.87,4.98 23.16,13.78 30.85,26.39 7.7,12.61 11.52,26.58 11.52,41.85 0,19.72 -6.41,36.34 -19.15,49.86 -12.74,13.52 -32.4,22.06 -59.05,25.74 9.77,4.66 17.14,9.32 22.19,13.84 10.73,9.83 20.89,22.19 30.4,37l48.05 75.67 -45.92 0 -36.74 -57.82c-10.67,-16.75 -19.53,-29.49 -26.45,-38.35 -6.98,-8.86 -13.19,-15.01 -18.69,-18.57 -5.43,-3.49 -11.06,-5.95 -16.75,-7.37 -4.14,-0.84 -10.93,-1.29 -20.44,-1.29l-42.56 0 0 123.4 -36.86 0zm36.86 -155.22l78.91 0c16.81,0 29.88,-1.75 39.32,-5.24 9.44,-3.43 16.62,-8.99 21.47,-16.69 4.92,-7.63 7.38,-15.91 7.38,-24.9 0,-13.13 -4.72,-23.99 -14.23,-32.47 -9.51,-8.47 -24.51,-12.67 -45.02,-12.67l-87.83 0 0 91.97z"/>
  <path id="_21" class="fil18 str1" d="M1093.83 6266.12l36.87 0 0 160.46c0,27.94 -3.17,50.13 -9.45,66.55 -6.33,16.37 -17.72,29.76 -34.15,40.04 -16.49,10.28 -38.03,15.46 -64.8,15.46 -25.94,0 -47.22,-4.47 -63.71,-13.46 -16.56,-8.99 -28.33,-21.92 -35.38,-38.93 -7.05,-17.01 -10.6,-40.23 -10.6,-69.66l0 -160.46 36.86 0 0 160.4c0,24.12 2.27,41.97 6.73,53.36 4.46,11.44 12.09,20.3 23.02,26.45 10.87,6.21 24.19,9.31 39.91,9.31 26.9,0 46.11,-6.14 57.56,-18.37 11.45,-12.29 17.14,-35.83 17.14,-70.75l0 -160.4z"/>
  <polygon id="_22" class="fil18 str1" points="1190.52,6543.97 1190.52,6266.12 1227.38,6266.12 1227.38,6511.37 1363.98,6511.37 1363.98,6543.97 "/>
  <path id="_23" class="fil18 str1" d="M1457.44 6543.97l0 -117.71 -107.1 -160.14 44.24 0 54.91 84.08c10.22,15.59 19.73,31.17 28.39,46.76 8.47,-14.55 18.76,-30.85 30.72,-48.96l53.81 -81.88 42.88 0 -110.98 160.14 0 117.71 -36.87 0z"/>
  <polygon id="_24" class="fil18 str1" points="1740.34,6543.97 1740.34,6266.12 1777.21,6266.12 1777.21,6380.6 1920.79,6380.6 1920.79,6266.12 1957.66,6266.12 1957.66,6543.97 1920.79,6543.97 1920.79,6413.19 1777.21,6413.19 1777.21,6543.97 "/>
  <polygon id="_25" class="fil18 str1" points="2019.81,6543.97 2019.81,6266.12 2220.43,6266.12 2220.43,6298.72 2056.67,6298.72 2056.67,6384.09 2209.96,6384.09 2209.96,6416.69 2056.67,6416.69 2056.67,6511.37 2227.03,6511.37 2227.03,6543.97 "/>
  <polygon id="_26" class="fil18 str1" points="2276.32,6543.97 2276.32,6266.12 2313.18,6266.12 2313.18,6511.37 2449.78,6511.37 2449.78,6543.97 "/>
  <path id="_27" class="fil18 str1" d="M2493.7 6543.97l0 -277.85 104.91 0c18.43,0 32.53,0.9 42.29,2.65 13.65,2.26 25.1,6.6 34.35,12.94 9.25,6.4 16.68,15.32 22.31,26.77 5.63,11.45 8.41,24.06 8.41,37.84 0,23.54 -7.5,43.53 -22.57,59.82 -15.01,16.37 -42.24,24.52 -81.56,24.52l-71.27 0 0 113.31 -36.87 0zm36.87 -145.91l71.79 0c23.8,0 40.61,-4.4 50.64,-13.26 9.96,-8.86 14.94,-21.28 14.94,-37.38 0,-11.58 -2.91,-21.54 -8.8,-29.82 -5.88,-8.28 -13.64,-13.77 -23.22,-16.43 -6.2,-1.61 -17.65,-2.45 -34.27,-2.45l-71.08 0 0 99.34z"/>
  <polygon id="_28" class="fil18 str1" points="2855.31,6543.97 2855.31,6266.12 3042.74,6266.12 3042.74,6298.72 2892.18,6298.72 2892.18,6385.25 3022.56,6385.25 3022.56,6417.85 2892.18,6417.85 2892.18,6543.97 "/>
  <path id="_29" class="fil18 str1" d="M3079.16 6408.73c0,-46.05 12.41,-82.14 37.19,-108.2 24.77,-26.07 56.72,-39.07 95.91,-39.07 25.68,0 48.77,6.15 69.4,18.37 20.57,12.22 36.28,29.3 47.08,51.22 10.81,21.87 16.24,46.7 16.24,74.45 0,28.13 -5.69,53.36 -17.08,75.54 -11.38,22.25 -27.48,39.06 -48.31,50.45 -20.89,11.45 -43.4,17.14 -67.52,17.14 -26.2,0 -49.54,-6.34 -70.18,-18.95 -20.56,-12.62 -36.22,-29.82 -46.82,-51.68 -10.61,-21.8 -15.91,-44.89 -15.91,-69.27zm38.03 0.65c0,33.44 8.99,59.76 26.97,78.97 17.98,19.21 40.55,28.84 67.71,28.84 27.69,0 50.39,-9.7 68.3,-29.1 17.85,-19.4 26.78,-46.96 26.78,-82.66 0,-22.57 -3.82,-42.3 -11.45,-59.11 -7.63,-16.82 -18.82,-29.88 -33.5,-39.13 -14.75,-9.25 -31.24,-13.91 -49.54,-13.91 -26,0 -48.38,8.93 -67.14,26.78 -18.76,17.85 -28.13,47.6 -28.13,89.32z"/>
  <path id="_30" class="fil18 str1" d="M3574.26 6266.12l36.87 0 0 160.46c0,27.94 -3.17,50.13 -9.45,66.55 -6.33,16.37 -17.72,29.76 -34.15,40.04 -16.49,10.28 -38.03,15.46 -64.8,15.46 -25.94,0 -47.22,-4.47 -63.71,-13.46 -16.56,-8.99 -28.33,-21.92 -35.38,-38.93 -7.05,-17.01 -10.6,-40.23 -10.6,-69.66l0 -160.46 36.86 0 0 160.4c0,24.12 2.27,41.97 6.73,53.36 4.46,11.44 12.09,20.3 23.02,26.45 10.87,6.21 24.19,9.31 39.91,9.31 26.9,0 46.11,-6.14 57.56,-18.37 11.45,-12.29 17.14,-35.83 17.14,-70.75l0 -160.4z"/>
  <polygon id="_31" class="fil18 str1" points="3672.11,6543.97 3672.11,6266.12 3709.88,6266.12 3855.66,6484.21 3855.66,6266.12 3890.98,6266.12 3890.98,6543.97 3853.21,6543.97 3707.43,6325.88 3707.43,6543.97 "/>
  <path id="_32" class="fil18 str1" d="M3952.74 6543.97l0 -277.85 95.72 0c21.6,0 38.1,1.29 49.48,3.94 15.91,3.69 29.49,10.35 40.75,19.92 14.68,12.42 25.61,28.2 32.85,47.48 7.31,19.27 10.93,41.33 10.93,66.1 0,21.08 -2.46,39.77 -7.37,56.07 -4.92,16.3 -11.25,29.82 -18.95,40.49 -7.76,10.67 -16.17,19.08 -25.35,25.16 -9.12,6.14 -20.18,10.8 -33.12,13.97 -13,3.17 -27.87,4.72 -44.69,4.72l-100.25 0zm36.87 -32.6l59.24 0c18.3,0 32.66,-1.68 43.07,-5.11 10.42,-3.42 18.7,-8.21 24.91,-14.42 8.66,-8.73 15.45,-20.5 20.3,-35.25 4.85,-14.74 7.31,-32.6 7.31,-53.62 0,-29.1 -4.78,-51.48 -14.29,-67.13 -9.51,-15.65 -21.09,-26.13 -34.73,-31.43 -9.83,-3.82 -25.68,-5.69 -47.54,-5.69l-58.27 0 0 212.65z"/>
  <path id="_33" class="fil18 str1" d="M4202.52 6543.97l106.59 -277.85 40.42 0 113.12 277.85 -41.85 0 -32.14 -84.21 -117 0 -30.14 84.21 -39 0zm79.94 -114.09l94.68 0 -28.97 -77.03c-8.73,-23.41 -15.33,-42.75 -19.92,-58.01 -3.82,18.1 -8.93,35.89 -15.33,53.48l-30.46 81.56z"/>
  <polygon id="_34" class="fil18 str1" points="4533.67,6543.97 4533.67,6298.72 4442.09,6298.72 4442.09,6266.12 4662.12,6266.12 4662.12,6298.72 4570.53,6298.72 4570.53,6543.97 "/>
  <polygon id="_35" class="fil18 str1" points="4706.29,6543.97 4706.29,6266.12 4743.16,6266.12 4743.16,6543.97 "/>
  <path id="_36" class="fil18 str1" d="M4796.65 6408.73c0,-46.05 12.41,-82.14 37.19,-108.2 24.77,-26.07 56.72,-39.07 95.91,-39.07 25.68,0 48.77,6.15 69.4,18.37 20.57,12.22 36.28,29.3 47.08,51.22 10.81,21.87 16.24,46.7 16.24,74.45 0,28.13 -5.69,53.36 -17.08,75.54 -11.38,22.25 -27.48,39.06 -48.31,50.45 -20.89,11.45 -43.4,17.14 -67.52,17.14 -26.2,0 -49.54,-6.34 -70.18,-18.95 -20.56,-12.62 -36.22,-29.82 -46.82,-51.68 -10.61,-21.8 -15.91,-44.89 -15.91,-69.27zm38.03 0.65c0,33.44 8.99,59.76 26.97,78.97 17.98,19.21 40.55,28.84 67.71,28.84 27.69,0 50.39,-9.7 68.3,-29.1 17.85,-19.4 26.78,-46.96 26.78,-82.66 0,-22.57 -3.82,-42.3 -11.45,-59.11 -7.63,-16.82 -18.82,-29.88 -33.5,-39.13 -14.75,-9.25 -31.24,-13.91 -49.54,-13.91 -26,0 -48.38,8.93 -67.14,26.78 -18.76,17.85 -28.13,47.6 -28.13,89.32z"/>
  <polygon id="_37" class="fil18 str1" points="5109.36,6543.97 5109.36,6266.12 5147.13,6266.12 5292.91,6484.21 5292.91,6266.12 5328.23,6266.12 5328.23,6543.97 5290.46,6543.97 5144.68,6325.88 5144.68,6543.97 "/>
 </g>
</svg>
